<?xml version="1.0" encoding="UTF-8" standalone="no"?>
<svg
   xmlns:dc="http://purl.org/dc/elements/1.1/"
   xmlns:cc="http://creativecommons.org/ns#"
   xmlns:rdf="http://www.w3.org/1999/02/22-rdf-syntax-ns#"
   xmlns:svg="http://www.w3.org/2000/svg"
   xmlns="http://www.w3.org/2000/svg"
   xmlns:sodipodi="http://sodipodi.sourceforge.net/DTD/sodipodi-0.dtd"
   xmlns:inkscape="http://www.inkscape.org/namespaces/inkscape"
   enable-background="new 0 0 512 512"
   height="512px"
   id="Layer_1"
   version="1.1"
   viewBox="0 0 512 512"
   width="512px"
   xml:space="preserve"
   inkscape:version="0.91 r13725"
   sodipodi:docname="home.svg"><metadata
     id="metadata11"><rdf:RDF><cc:Work
         rdf:about=""><dc:format>image/svg+xml</dc:format><dc:type
           rdf:resource="http://purl.org/dc/dcmitype/StillImage" /></cc:Work></rdf:RDF></metadata><defs
     id="defs9" /><sodipodi:namedview
     pagecolor="#ffffff"
     bordercolor="#666666"
     borderopacity="1"
     objecttolerance="10"
     gridtolerance="10"
     guidetolerance="10"
     inkscape:pageopacity="0"
     inkscape:pageshadow="2"
     inkscape:window-width="1057"
     inkscape:window-height="737"
     id="namedview7"
     showgrid="false"
     inkscape:zoom="0.4609375"
     inkscape:cx="256"
     inkscape:cy="256"
     inkscape:window-x="0"
     inkscape:window-y="0"
     inkscape:window-maximized="0"
     inkscape:current-layer="Layer_1" /><g
     id="g3"><path
       d="M400,32H112c-44.18,0-80,35.813-80,80v288c0,44.188,35.82,80,80,80h288c44.18,0,80-35.813,80-80V112   C480,67.813,444.18,32,400,32z M171.836,211.859c1.102-2.359,3.438-3.859,5.992-3.859H224v-48v-24c0-4.422,3.578-8,8-8h48   c4.422,0,8,3.578,8,8v24v48h46.172c2.563,0,4.898,1.5,5.992,3.844c1.102,2.344,0.766,5.141-0.859,7.156l-78.022,86.438   c-1.25,1.547-3.134,2.47-5.125,2.47c-1.977,0-3.859-0.906-5.109-2.47L172.711,219C171.078,216.984,170.734,214.219,171.836,211.859   z M368,368c0,8.844-7.164,16-16,16H160c-8.836,0-16-7.156-16-16v-48c0-8.844,7.164-16,16-16s16,7.156,16,16v32h160v-32   c0-8.844,7.164-16,16-16s16,7.156,16,16V368z"
       fill="#4D4D4D"
       id="path5" /></g><path
     style="fill:#ffffff"
     d="m 150.26068,378.9849 c -4.94672,-4.00562 -5.1217,-5.19803 -5.1217,-34.90354 0,-29.70552 0.17498,-30.89793 5.1217,-34.90355 6.61017,-5.35259 14.35809,-5.27769 19.82746,0.19168 3.69617,3.69617 4.33898,7.23164 4.33898,23.86441 l 0,19.52542 81.35593,0 81.35593,0 0,-19.14725 c 0,-17.20931 0.50821,-19.62468 5.02118,-23.86441 6.57826,-6.17995 13.4472,-5.97142 20.02658,0.60796 5.11147,5.11146 5.32512,6.46465 5.32512,33.72574 0,27.26108 -0.21369,28.61427 -5.32512,33.72573 l -5.3251,5.32511 -100.73963,0 c -95.95515,0 -100.98287,-0.19697 -105.86133,-4.1473 z"
     id="path3339"
     inkscape:connector-curvature="0" /><path
     style="fill:#ffffff"
     d="m 213.47797,262.49724 c -22.07458,-24.52548 -40.1356,-46.22255 -40.1356,-48.2157 0,-3.14526 3.36693,-3.70464 25.49153,-4.23513 l 25.49152,-0.61123 0,-37.46335 c 0,-26.24551 0.77955,-38.2429 2.60339,-40.06675 3.599,-3.59899 54.10948,-3.59899 57.70848,0 1.82384,1.82385 2.60339,13.82124 2.60339,40.06675 l 0,37.46335 25.46532,0.61123 c 20.72701,0.49749 25.58278,1.22451 26.09657,3.90725 0.69574,3.63276 -78.9495,93.2799 -82.79359,93.19085 -1.31748,-0.0305 -20.45644,-20.12179 -42.53101,-44.64727 z"
     id="path3341"
     inkscape:connector-curvature="0" /></svg>